<svg width="20" height="14" viewBox="0 0 20 14" fill="none" xmlns="http://www.w3.org/2000/svg">
<path d="M4.732 13.416C7.072 13.416 8.788 11.804 8.788 9.412C8.788 7.02 7.072 5.564 5.044 5.564C4.264 5.564 3.38 5.772 2.86 6.396C2.964 5.304 3.38 4.316 4.056 3.64C4.732 2.912 5.72 2.444 6.916 2.444C7.956 2.444 8.06 2.444 8.788 2.548V0.155998C8.32 0.0519996 7.54 0 6.916 0C2.288 0 0 3.276 0 7.54C0 11.804 2.704 13.416 4.732 13.416ZM15.08 13.416C17.42 13.416 19.136 11.804 19.136 9.412C19.136 7.02 17.42 5.564 15.392 5.564C14.612 5.564 13.728 5.772 13.208 6.396C13.312 5.304 13.728 4.316 14.404 3.64C15.08 2.912 16.068 2.444 17.264 2.444C18.304 2.444 18.408 2.444 19.136 2.548V0.155998C18.668 0.0519996 17.888 0 17.264 0C12.636 0 10.348 3.276 10.348 7.54C10.348 11.804 13.052 13.416 15.08 13.416Z" fill="#D2DAEA"/>
</svg>
