<svg width="20" height="14" viewBox="0 0 20 14" fill="none" xmlns="http://www.w3.org/2000/svg">
<path d="M14.5395 0C12.1995 0 10.4835 1.612 10.4835 4.004C10.4835 6.396 12.1995 7.852 14.2275 7.852C15.0075 7.852 15.8915 7.644 16.4115 7.02C16.3075 8.112 15.8915 9.1 15.2155 9.776C14.5395 10.504 13.5515 10.972 12.3555 10.972C11.3155 10.972 11.2115 10.972 10.4835 10.868V13.26C10.9515 13.364 11.7315 13.416 12.3555 13.416C16.9835 13.416 19.2715 10.14 19.2715 5.876C19.2715 1.612 16.5675 0 14.5395 0ZM4.19148 0C1.85148 0 0.135483 1.612 0.135483 4.004C0.135483 6.396 1.85148 7.852 3.87948 7.852C4.65948 7.852 5.54348 7.644 6.06348 7.02C5.95948 8.112 5.54348 9.1 4.86748 9.776C4.19148 10.504 3.20348 10.972 2.00748 10.972C0.967484 10.972 0.863483 10.972 0.135483 10.868V13.26C0.603483 13.364 1.38348 13.416 2.00748 13.416C6.63549 13.416 8.92348 10.14 8.92348 5.876C8.92348 1.612 6.21948 0 4.19148 0Z" fill="#D2DAEA"/>
</svg>
